<?xml version="1.0" encoding="utf-8"?>
<!-- Generator: Adobe Illustrator 25.0.0, SVG Export Plug-In . SVG Version: 6.00 Build 0)  -->
<svg version="1.1" id="Calque_1" xmlns="http://www.w3.org/2000/svg" xmlns:xlink="http://www.w3.org/1999/xlink" x="0px" y="0px"
	 viewBox="0 0 63.8 84.9" style="enable-background:new 0 0 63.8 84.9;" xml:space="preserve">
<style type="text/css">
	.st0{fill:#659933;}
	.st1{clip-path:url(#SVGID_2_);}
	.st2{fill:#333333;}
	.st3{fill-rule:evenodd;clip-rule:evenodd;fill:#659933;}
</style>
<ellipse class="st0" cx="32.5" cy="35" rx="18.5" ry="18.4"/>
<g>
	<defs>
		<path id="SVGID_1_" d="M24,33.6c-0.4-0.1-0.9-0.3-1.3-0.5c-0.5-0.2-1.1-0.5-1.6-0.9c-0.5-0.4-1-0.9-1.4-1.4
			c-0.4-0.6-0.6-1.2-0.6-1.9c0-1,0.3-2,0.7-2.9c0.6-1.2,1.4-2.2,2.4-3c1.4-1,2.9-1.8,4.6-2.3c2.3-0.7,4.8-1,7.2-0.9h1.4
			c0.9,0,1.9,0.1,2.8,0.3c0.9,0.2,1.7,0.4,2.5,0.7c0.9,0.3,1.8,0.8,2.5,1.3c0.8,0.6,1.4,1.3,1.9,2.1c0.5,1,0.8,2,0.8,3.1
			c-0.1,1.8-0.9,3.5-2.2,4.7c-2.1,1.9-4.5,3.5-7.1,4.6h0.3h0.3c0.1,0,0.3,0,0.4,0c0.4,0,0.9,0.1,1.3,0.1c0.5,0.1,1,0.3,1.4,0.5
			c0.5,0.3,0.9,0.7,1.1,1.2c0.3,0.6,0.5,1.4,0.5,2.1c0,1.5-0.5,2.9-1.3,4.1c-0.9,1.3-2,2.4-3.3,3.2c-1.4,0.9-2.9,1.5-4.5,1.8
			c-1.6,0.4-3.2,0.4-4.7,0.1c-1.1-0.2-2.1-0.5-3.1-1c-0.7-0.3-1.3-0.7-1.8-1.2c-0.4-0.4-0.6-0.9-0.7-1.4c-0.1-0.5,0-1,0.1-1.5
			l1.1,0.7c0.3,0.2,0.6,0.3,0.9,0.5c0.3,0.1,0.6,0.2,0.9,0.3l1.2,0.4c1.1,0.2,2.2,0.3,3.3,0.3c1.2,0,2.5-0.2,3.6-0.7
			c1.1-0.4,2.2-1.1,3-2.1c0.9-1.1,1.3-2.5,1.2-3.9c0-0.8-0.5-1.5-1.3-1.7c-1-0.4-2.1-0.6-3.2-0.6c-0.7,0-1.4,0-2,0.1l-1.9,0.2
			c-0.1,0-0.2-0.1-0.2-0.3c0-0.2,0.1-0.5,0.1-0.7c0.1-0.3,0.2-0.5,0.3-0.8c0.1-0.2,0.2-0.5,0.4-0.7c0.1-0.1,0.2-0.3,0.3-0.3
			c0.9-0.2,2-0.6,3.3-1.1c1.3-0.5,2.6-1.1,3.8-1.8c1.2-0.6,2.2-1.5,3.2-2.4c0.8-0.8,1.3-1.9,1.3-3.1c0-0.7-0.2-1.4-0.6-2
			c-0.4-0.6-1-1.1-1.7-1.4c-0.8-0.4-1.6-0.7-2.5-0.8c-1-0.2-2-0.3-3-0.3c-1.4,0-2.9,0.2-4.3,0.5c-1.5,0.3-3,0.7-4.4,1.3
			c-1.2,0.5-2.4,1.2-3.4,2c-0.8,0.6-1.3,1.6-1.4,2.7c0,0.3,0.2,0.5,0.4,0.7c0.6,0.4,1.3,0.5,2,0.4c0.3,0,0.7,0,1.1-0.1
			c0.5,0,1-0.1,1.4-0.2c0.1,0,0.1,0,0.2,0.1c0.1,0.1,0.2,0.2,0.2,0.2v0.2l-1.4,2.8l-0.2,0.2c-0.1,0.1-0.2,0.1-0.3,0.1
			C24.1,33.6,24.1,33.6,24,33.6C24.1,33.6,24,33.6,24,33.6 M32,26.7c0.1,0.1,0.2,0.1,0.2,0.2c0.2,0.2,0.2,0.5,0.2,0.8
			c0,0.2,0,0.3-0.1,0.5c0,0.2-0.1,0.5-0.2,0.7c-0.1,0.3-0.3,0.7-0.6,1.4l-1.1,2.3c-0.4,0.9-0.9,1.8-1.4,2.8c-0.5,1-0.9,1.9-1.4,2.8
			c-0.4,0.9-0.8,1.6-1.1,2.3c-0.3,0.6-0.5,1.1-0.7,1.2c-0.2,0.4-0.4,0.7-0.5,0.9c-0.1,0.2-0.2,0.5-0.2,0.7c0,0.4,0.1,0.7,0.2,1.1
			c0.1,0.2,0.2,0.5,0.2,0.8c0,0.1-0.1,0.2-0.3,0.2c-0.6-0.1-1.1-0.4-1.5-0.9C23.3,44,23,43.3,23,42.6c0-0.2,0.1-0.4,0.1-0.6
			c0.1-0.2,0.1-0.4,0.1-0.6c0.2-0.5,0.6-1.3,0.9-2.3c0.4-1,0.8-2.1,1.2-3.3s0.9-2.4,1.4-3.6c0.5-1.2,0.9-2.4,1.3-3.3
			s0.8-1.8,1.1-2.4c0.3-0.7,0.5-1,0.6-1c0.1,0,0.2,0,0.3,0.1L32,26.7z"/>
	</defs>
	<clipPath id="SVGID_2_">
		<use xlink:href="#SVGID_1_"  style="overflow:visible;"/>
	</clipPath>
	<g class="st1">
		<path class="st2" d="M24,33.6c-0.4-0.1-0.9-0.3-1.3-0.5c-0.5-0.2-1.1-0.5-1.6-0.9c-0.5-0.4-1-0.9-1.4-1.4
			c-0.4-0.6-0.6-1.2-0.6-1.9c0-1,0.3-2,0.7-2.9c0.6-1.2,1.4-2.2,2.4-3c1.4-1,2.9-1.8,4.6-2.3c2.3-0.7,4.8-1,7.2-0.9h1.4
			c0.9,0,1.9,0.1,2.8,0.3c0.9,0.2,1.7,0.4,2.5,0.7c0.9,0.3,1.8,0.8,2.5,1.3c0.8,0.6,1.4,1.3,1.9,2.1c0.5,1,0.8,2,0.8,3.1
			c-0.1,1.8-0.9,3.5-2.2,4.7c-2.1,1.9-4.5,3.5-7.1,4.6h0.3h0.3c0.1,0,0.3,0,0.4,0c0.4,0,0.9,0.1,1.3,0.1c0.5,0.1,1,0.3,1.4,0.5
			c0.5,0.3,0.9,0.7,1.1,1.2c0.3,0.6,0.5,1.4,0.5,2.1c0,1.5-0.5,2.9-1.3,4.1c-0.9,1.3-2,2.4-3.3,3.2c-1.4,0.9-2.9,1.5-4.5,1.8
			c-1.6,0.4-3.2,0.4-4.7,0.1c-1.1-0.2-2.1-0.5-3.1-1c-0.7-0.3-1.3-0.7-1.8-1.2c-0.4-0.4-0.6-0.9-0.7-1.4c-0.1-0.5,0-1,0.1-1.5
			l1.1,0.7c0.3,0.2,0.6,0.3,0.9,0.5c0.3,0.1,0.6,0.2,0.9,0.3l1.2,0.4c1.1,0.2,2.2,0.3,3.3,0.3c1.2,0,2.5-0.2,3.6-0.7
			c1.1-0.4,2.2-1.1,3-2.1c0.9-1.1,1.3-2.5,1.2-3.9c0-0.8-0.5-1.5-1.3-1.7c-1-0.4-2.1-0.6-3.2-0.6c-0.7,0-1.4,0-2,0.1l-1.9,0.2
			c-0.1,0-0.2-0.1-0.2-0.3c0-0.2,0.1-0.5,0.1-0.7c0.1-0.3,0.2-0.5,0.3-0.8c0.1-0.2,0.2-0.5,0.4-0.7c0.1-0.1,0.2-0.3,0.3-0.3
			c0.9-0.2,2-0.6,3.3-1.1c1.3-0.5,2.6-1.1,3.8-1.8c1.2-0.6,2.2-1.5,3.2-2.4c0.8-0.8,1.3-1.9,1.3-3.1c0-0.7-0.2-1.4-0.6-2
			c-0.4-0.6-1-1.1-1.7-1.4c-0.8-0.4-1.6-0.7-2.5-0.8c-1-0.2-2-0.3-3-0.3c-1.4,0-2.9,0.2-4.3,0.5c-1.5,0.3-3,0.7-4.4,1.3
			c-1.2,0.5-2.4,1.2-3.4,2c-0.8,0.6-1.3,1.6-1.4,2.7c0,0.3,0.2,0.5,0.4,0.7c0.6,0.4,1.3,0.5,2,0.4c0.3,0,0.7,0,1.1-0.1
			c0.5,0,1-0.1,1.4-0.2c0.1,0,0.1,0,0.2,0.1c0.1,0.1,0.2,0.2,0.2,0.2v0.2l-1.4,2.8l-0.2,0.2c-0.1,0.1-0.2,0.1-0.3,0.1
			C24.1,33.6,24.1,33.6,24,33.6C24.1,33.6,24,33.6,24,33.6 M32,26.7c0.1,0.1,0.2,0.1,0.2,0.2c0.2,0.2,0.2,0.5,0.2,0.8
			c0,0.2,0,0.3-0.1,0.5c0,0.2-0.1,0.5-0.2,0.7c-0.1,0.3-0.3,0.7-0.6,1.4l-1.1,2.3c-0.4,0.9-0.9,1.8-1.4,2.8c-0.5,1-0.9,1.9-1.4,2.8
			c-0.4,0.9-0.8,1.6-1.1,2.3c-0.3,0.6-0.5,1.1-0.7,1.2c-0.2,0.4-0.4,0.7-0.5,0.9c-0.1,0.2-0.2,0.5-0.2,0.7c0,0.4,0.1,0.7,0.2,1.1
			c0.1,0.2,0.2,0.5,0.2,0.8c0,0.1-0.1,0.2-0.3,0.2c-0.6-0.1-1.1-0.4-1.5-0.9C23.3,44,23,43.3,23,42.6c0-0.2,0.1-0.4,0.1-0.6
			c0.1-0.2,0.1-0.4,0.1-0.6c0.2-0.5,0.6-1.3,0.9-2.3c0.4-1,0.8-2.1,1.2-3.3s0.9-2.4,1.4-3.6c0.5-1.2,0.9-2.4,1.3-3.3
			s0.8-1.8,1.1-2.4c0.3-0.7,0.5-1,0.6-1c0.1,0,0.2,0,0.3,0.1L32,26.7z"/>
		<path class="st3" d="M55.2-13.5C56-13.3,55.4-14,55.2-13.5 M25.5-12.8C26.2-12.7,25.5-13.3,25.5-12.8 M15.5-11.3
			c-0.7-0.6,0.5-0.9,0.5-1.3c-1,0-0.9,1.1-1.5,1.5C14.7-11,15.2-11.1,15.5-11.3 M55.7-11.7c0.7,0.2,0.7-0.4,1-0.7
			C56.3-12.2,55.6-12.3,55.7-11.7 M35.4-12.2C35.3-11.2,36.2-12.1,35.4-12.2 M43.3-9.5c0.1-0.2,0.2-0.4,0.3-0.7
			C43-10.5,42.9-9.6,43.3-9.5 M27.9-9.3c0.4,0,0.6,0,0.7-0.3C28.2-9.7,27.9-9.7,27.9-9.3 M53.5-9.2c0.4,0,0.7-0.1,1-0.3
			C54-9.5,53.5-9.6,53.5-9.2 M58.3-9C59-8.8,58.3-9.5,58.3-9 M55.5-8c0.2,0.2,0.8,0.2,0.8-0.2C56.1-8.4,55.5-8.4,55.5-8 M50-7.8
			C50.7-7.7,50-8.3,50-7.8 M54.2-7.3C54.9-7.2,54.2-7.8,54.2-7.3 M20.2-7C20-7,20-7.1,19.8-7.2c0,0.2-0.1,0.2-0.2,0.3
			c0.2,0,0.2,0.1,0.3,0.2C20-6.8,20.1-6.9,20.2-7 M18.8-6.3C19.5-6.2,18.8-6.8,18.8-6.3 M20.3-6.5c-0.3,0-0.6,0.1-0.7,0.3
			C20.1-6.2,20.3-6.2,20.3-6.5 M24-6.2C24.9-6,24.2-6.7,24-6.2 M40.4-6.2h-0.3v0.3h0.3V-6.2z M44.3-5.5c0.7,0.1,1.1,0.6,1.3-0.3
			C45.1-5.8,44.3-6,44.3-5.5 M37.6-4.4c0.3,0.3,1,0.2,1-0.3C38.1-4.7,37.6-4.8,37.6-4.4 M18-3.9C18.7-3.7,18-4.4,18-3.9 M12.3-2.9
			v0.2C12.7-2.7,12.6-2.9,12.3-2.9 M40.9-0.4h-0.3V0h0.3V-0.4z M48.8,0.3h0.3V0h-0.3V0.3z M51.1,0.3C51.8,0.4,51.1-0.2,51.1,0.3
			 M43.3,1c-0.4,0.1-1.1-0.2-1.2,0.2C42.4,1,43.2,1.3,43.3,1 M36.6,2.3c0.6,0,1.2,0,1-0.7c-0.3-0.1-0.7,0-1,0.2V2.3z M19.8,2.1
			C19,1.7,19,2.4,18,2.1C18.4,3.5,19.3,2.4,19.8,2.1 M31.1,3.3c0.7,0.1,1.2-0.1,1.3-0.7c-0.2,0-0.4-0.1-0.5-0.2
			C32.1,3.2,30.9,2.6,31.1,3.3 M28.4,3.3c-0.2-0.3-0.9,0.3-0.5-0.3c-0.2,0-0.5,0-0.5,0.2c0.2,0,0.1,0.2,0,0.3
			C27.7,3.3,28.4,3.6,28.4,3.3 M44.3,3.3v0.3h0.5C44.8,3.3,44.6,3.2,44.3,3.3 M45,3.8C45.7,3.9,45,3.3,45,3.8 M57.4,4.8
			c0.5-0.1,1-0.2,1.5-0.5C58.6,4.1,58.3,4,58,3.8C57.9,4.2,57.6,4.4,57.4,4.8 M16.5,5.3C16.5,5,17,5.2,17,4.9
			C16.8,4.5,16,5,16.5,5.3 M24.4,5.9C24.8,6.6,24.6,5.4,24.4,5.9 M56,5.9C56.7,6.1,56,5.4,56,5.9 M55.9,6.4h-0.5v0.5
			C55.7,6.9,55.9,6.8,55.9,6.4 M31.1,7.3c0.4,1,1.1,1,1.8,0.3C32.6,6.8,31.9,7,31.1,7.3 M19.2,7.4C19.9,7.6,19.2,6.9,19.2,7.4
			 M15.4,7.8c0-0.4-1.1-0.5-1.3-0.2C14.3,7.7,15.2,8,15.4,7.8 M58.9,8.1C60.4,8.7,59.2,6.8,58.9,8.1 M13,8.1c0.4,0.1,0.9,0.3,1-0.3
			c-0.9,0.2-0.9-0.1-1.7,0.3v0.8C12.9,9.4,12.7,8.3,13,8.1 M15.7,8.1C16.4,8.2,15.7,7.6,15.7,8.1 M18.2,9.1c0.1-0.5-0.5-0.3-0.3-0.8
			c-0.4,0.1-0.8,0.2-0.8,0.7C17.3,9.3,17.8,9.4,18.2,9.1C18.2,9.1,18.2,9.1,18.2,9.1 M30.9,8.4v0.3h0.5C31.4,8.5,31.2,8.4,30.9,8.4
			 M49.2,9.1c-0.2-0.2-0.6-0.2-0.8-0.2C48.1,9.4,49.2,9.4,49.2,9.1 M30.2,10.1h0.3V9.4h-0.3V10.1z M51,9.6
			C50.6,10.1,51.6,9.2,51,9.6 M26.9,9.7v0.3h0.5C27.4,9.8,27.2,9.7,26.9,9.7 M25.2,11.4c0.1-0.6-0.3-0.5-0.5-0.8
			C24.5,10.8,24.6,11.6,25.2,11.4 M14,11.9C14.7,12.1,14,11.4,14,11.9 M38.6,11.7h-0.3v0.3h0.3V11.7z M57,11.9
			C57.7,12.1,57,11.4,57,11.9 M53,12.7h0.8c0.1-0.3,0.3-0.6,0-0.8c-0.1,0.6-0.6,0-0.8,0.3L53,12.7z M32.2,12.2
			C32.9,12.4,32.2,11.7,32.2,12.2 M43.9,12.2C44.2,12.7,44.4,11.5,43.9,12.2 M15.8,12.5h0.3v-0.3h-0.3V12.5z M31.9,12.5
			C31.3,12,31.4,13.1,31.9,12.5 M44.3,12.5C45,12.7,44.3,12,44.3,12.5 M49.5,13.4c0.2,0.2,0.6,0.2,0.7-0.2
			C49.9,13.2,49.5,13.1,49.5,13.4 M15.3,13.4c0,0.2,0.1,0.4,0.3,0.5C15.7,13.6,15.7,13.3,15.3,13.4 M19.7,13.5
			c0.1,0.4-0.3,0.4-0.2,0.8c0.9,0.1,1.3-0.2,1.5-0.7C20.7,13.5,20.3,13.7,19.7,13.5 M56,14.7C56.7,14.8,56,14.2,56,14.7 M38.6,15
			C37.6,14.8,38.3,15.5,38.6,15 M19,15.5c0,0.2-0.1,0.2-0.2,0.3c0.2,0,0.2,0.1,0.3,0.2c0-0.2,0.1-0.2,0.2-0.3
			C19.2,15.7,19.2,15.5,19,15.5 M40,16.2C40.4,16.8,40.2,15.6,40,16.2 M43.3,16.3C44,16.5,43.3,15.8,43.3,16.3 M32.3,16.8
			c0.3-0.1,0.7-0.1,0.8-0.3C32.8,16.2,32.4,16.5,32.3,16.8 M16.5,17.7c0.3-0.2,0.5-0.6,0-0.7C16.5,17.1,16.1,17.6,16.5,17.7
			 M55,17.2V18C55.5,18.2,55.5,16.9,55,17.2 M18.4,17.8C19.3,18,18.6,17.3,18.4,17.8 M54.5,17.7c-0.4-0.1-0.6,0-0.7,0.3
			C54.2,18,54.5,18,54.5,17.7 M24.6,19c0.6,0.1,0.7-0.4,0.8-0.8C24.9,18.2,24.6,18.5,24.6,19 M59.2,19h0.5
			C59.9,18.2,59.2,18.6,59.2,19 M32.6,19.3v-0.5C31.8,18.6,31.7,19.6,32.6,19.3 M46.8,18.8c0,0.2,0,0.5,0.2,0.5
			C47.1,19.2,47.3,18.7,46.8,18.8 M48.8,19.3C49,19.9,49.2,18.7,48.8,19.3 M20.1,19.3c0.1,0.3,0.1,0.7,0.3,0.8
			c0-0.2,0.7-0.4,0.7-0.2c-0.1,0.3-0.5,0.3-0.2,0.7h0.5C21.7,19.6,21.2,19.2,20.1,19.3 M33.5,19.7c0.3,0.3,1.6,0.3,1.5-0.3
			C34.6,19.5,33.5,19,33.5,19.7 M55.5,21.1c0.3,0,0.8,0.2,0.7-0.3C55.9,20.8,55.6,20.9,55.5,21.1 M46.9,21.5
			c0.5,0.2,0.5-0.2,0.7-0.5h-0.7V21.5z M18.3,22.1c0.4,0,0.8,0,1-0.2c0.2-0.2-0.2-0.4,0-0.5c0.2-0.1,0.3,0,0.3-0.2
			C18.9,21.3,18.4,21.5,18.3,22.1 M58.1,21.5C58.8,21.6,58.1,21,58.1,21.5 M29.2,23.1c0.1-0.4,0.5-0.5,0.5-1
			C29,21.9,28.8,22.9,29.2,23.1 M37.9,25.1c0.2-0.5,0.2-1.3,1-1.3c0-0.5-0.3-1.4-0.7-1c0.1,0.4-0.8,1.2-1,1.8
			C37.4,24.9,37.5,25.2,37.9,25.1 M33.9,23.1c0.3,0,0.6,0,0.5-0.3C34.2,22.8,33.9,22.9,33.9,23.1 M35,23c0.3,0.1,0.4,0.4,0.9,0.3
			C36.1,22.8,35.2,22.6,35,23 M39.1,22.8C38.6,23.4,39.7,23.3,39.1,22.8 M52.8,23.1C53.5,23.3,52.8,22.6,52.8,23.1 M45.9,24
			c0-0.4-0.3-0.5-0.5-0.7c0,0.3-0.2,0.4-0.2,0.7H45.9z M59,24.1c0.4-0.1,0.4,0.3,0.8,0.2C60,23.7,59,23.6,59,24.1 M39.4,25.6
			c0.1-0.5,0.2-0.9,0.3-1.3C39.2,24.3,38.4,25.6,39.4,25.6 M25.8,25.3V25C25.5,24.4,25,25.5,25.8,25.3 M59.8,24.8
			c-0.3,0-0.6,0-0.5,0.3C59.5,25.2,59.8,25,59.8,24.8 M36.7,25.3h0.3V25h-0.3V25.3z M28.5,25.5H29c0-0.3-0.2-0.4-0.5-0.3L28.5,25.5z
			 M33,25.8C33.7,26,33,25.3,33,25.8 M40.1,25.8C39.7,26.3,40.6,25.4,40.1,25.8 M52.8,26.1c0.2,0,0.4-0.1,0.5-0.3
			C53,25.8,52.7,25.8,52.8,26.1 M25.5,26.8c0.4,0.1,1,0.3,1-0.3C26,26.5,25.6,26.5,25.5,26.8 M50.9,27.3h0.3V27h-0.3V27.3z
			 M37.6,27.8c0.2,0,0.2,0.1,0.3,0.2c0-0.2,0.1-0.2,0.2-0.3c-0.2,0-0.2-0.1-0.3-0.2C37.7,27.6,37.6,27.6,37.6,27.8 M55.8,27.6
			c0.1,0.5-0.2,0.4-0.2,0.8c0.2,0.2,0.7,0.2,1.2,0.2c-0.1-0.5-0.1-0.3,0.2-0.7C56.6,27.8,56.4,27.5,55.8,27.6 M15.5,28.8
			c-0.5,0.2-0.9-0.1-1,0.7C15.1,29.5,15.4,29.3,15.5,28.8 M27,29.3C26.6,29.8,27.5,28.9,27,29.3 M27.5,29.3c0.2,0,0.3,0.2,0.7,0.2
			C28.4,29,27.4,29,27.5,29.3 M21.8,29.9v-0.5C21,29.2,20.9,30.2,21.8,29.9 M37.9,29.6C37.5,30.2,38.4,29.2,37.9,29.6 M47.9,29.8
			c0,0.2-0.2,0.2-0.2,0.5C48.2,30.5,48.2,29.7,47.9,29.8 M35.9,31.1c0.4,0.5,0.9,0.2,1.7,0.2c-0.1-0.4-0.8-0.2-1-0.8
			c0.1,0,0.3,0,0.3-0.2C36.1,30.1,36.2,30.8,35.9,31.1 M19.2,30.9h0.3v-0.3h-0.3V30.9z M47.6,30.6c-0.3,0-0.6,0-0.5,0.3
			C47.4,30.9,47.6,30.8,47.6,30.6 M50.6,30.9C51.5,31.1,50.8,30.4,50.6,30.9 M23.7,31.1C24.4,31.2,23.7,30.6,23.7,31.1 M50.8,31.2
			C51.9,31.7,51.6,30.7,50.8,31.2 M20.5,32.1C20.1,32.6,21.1,31.7,20.5,32.1 M48.3,32.4c0.4,0,0.9,0,0.8-0.5
			C48.7,31.9,48.3,31.9,48.3,32.4 M46,32.7c-0.1,0.6,0.7,0.3,0.8,0.7c-0.2,0-0.4,0.1-0.5,0.3h0.8c-0.3-0.8,0.3-0.9,0-1.3
			C47,32.7,46.5,32.8,46,32.7 M43.6,32.7c-0.1,0.9-1.4,1-2.2,1.7C42.6,35.1,44.4,33.4,43.6,32.7 M58,33.7c0.2,0,0.4-0.1,0.5-0.3
			C58.2,33.4,57.9,33.4,58,33.7 M14.1,33.9c0.2,0,0.4-0.1,0.5-0.3C14.4,33.6,14.1,33.6,14.1,33.9 M20.5,34.6
			c-0.1-0.5,0.8-0.1,0.7-0.7C20.6,33.7,20,34.3,20.5,34.6 M13.1,34.4C13.8,34.6,13.1,33.9,13.1,34.4 M28.2,34.9H29v-0.7
			C28.4,34.1,28.4,34.6,28.2,34.9 M35.2,34.7c0.1-0.4-0.3-0.4-0.7-0.5C34.4,34.8,35.1,34.5,35.2,34.7 M30.7,34.9c-0.7-1-1.7,0-2,0.8
			C29.7,35.8,29.9,35.1,30.7,34.9 M14.4,34.9c-0.3,0.1-0.6,0-0.8-0.2C13.5,35.2,14.4,35.4,14.4,34.9 M19.6,34.7
			c0.1,0.6-0.4,0.9,0,1.3c0.6-0.1,0.7-0.7,1.2-1C20.4,34.9,20.2,34.6,19.6,34.7 M40.7,35.7c0.7,0.2,1.2-0.7,0.5-0.8
			C41.2,35.3,40.6,35.2,40.7,35.7 M12.3,35.2v0.2C12.5,35.4,12.4,35.2,12.3,35.2 M57.6,36.1c0.2-0.1,0.9,0.2,0.8-0.2
			C58.3,35.7,57.6,35.6,57.6,36.1 M27,37.7c1,0.5,1.1,0,2-0.3c-0.3-0.1-0.9-1.2,0-1c-0.6-1.2-0.6,0.3-1.3,0c0.2,0.6,0.3,0.4,0.3,1.2
			C27.7,37.6,27,37.3,27,37.7 M34.9,36.1c0.4,0,0.2,0.5,0.5,0.5C35.8,36.3,35.1,35.6,34.9,36.1 M45.1,38.2c-0.2-0.8,0.7-0.6,0.7-1.2
			c-0.5-0.1-0.4,0.2-0.8,0.2C45,37.5,44.7,38.2,45.1,38.2 M36.5,38c0.5,0,0.9-0.6,0.3-0.7C37.1,37.9,36.3,37.5,36.5,38 M40.1,37.9
			h0.8C41,37.1,40.1,37.4,40.1,37.9 M25,37.9c0.2,0.4,0.8-0.2,0.3-0.3C25.4,37.8,25.1,37.7,25,37.9 M59.8,38c-0.2-0.3-1-0.2-0.8,0.3
			C59.4,38.4,59.8,38.4,59.8,38 M54.8,38.4C54.3,37.9,54.3,39,54.8,38.4 M44.9,38.4c0,0,0,0.1,0,0.2C44.6,39.5,45.8,37.5,44.9,38.4
			 M46.3,39.7c0.9,0,0.7-0.2,0.8-1C46.6,38.8,46.1,39,46.3,39.7 M58.7,39.4C59.1,40,58.9,38.8,58.7,39.4 M23.4,40
			c0.5,0.1,0.5-0.3,1-0.2C24.1,39.1,23.7,39.5,23.4,40 M48.5,39.4c-0.3-0.1-0.6,0.1-0.8,0.3C48.1,39.8,48.5,40,48.5,39.4 M52.5,39.5
			C52.9,40.2,52.7,39,52.5,39.5 M12.5,40C13.2,40.2,12.5,39.5,12.5,40 M20,40.5c0.1,0,0.2,0,0.2,0.2h0.3C20.8,40.3,20,40.2,20,40.5
			 M42.3,41C43.2,41.2,42.5,40.5,42.3,41 M56.4,41.9h0.5v-0.5C56.5,41.4,56.3,41.5,56.4,41.9 M37.1,42.5c0.3,0,0.8,0.2,0.7-0.3h-0.7
			V42.5z M59.7,42.2c-0.3,0.1-1-0.2-0.8,0.3C59.2,42.6,59.5,42.5,59.7,42.2 M46,42.5C46.7,42.7,46,42,46,42.5 M46,42.7h-0.3V43H46
			V42.7z M35.6,43.2C36.5,43.4,35.8,42.7,35.6,43.2 M15.2,43.5c-0.4,0-0.6,0-0.7,0.3C14.8,43.9,15.4,44,15.2,43.5 M20.2,43.5v0.3
			h0.5C20.7,43.6,20.6,43.5,20.2,43.5 M45.8,44.3c-0.3-0.2-0.7-0.6-0.8,0C45.4,44.1,45.7,44.8,45.8,44.3 M54.5,44.2
			c0.2,0.2,0.5,0.2,0.8,0.2C55.6,43.8,54.5,43.9,54.5,44.2 M43.3,45.2c-0.6,0.1-1.3,0-1.7,0.7C41.9,46.1,43.8,45.7,43.3,45.2
			 M45.3,45.2c-0.5,0.1-1,0.3-1.3,0.7C44.6,45.9,45.5,46,45.3,45.2 M21.7,45.9h0.5C22.3,45,21.7,45.5,21.7,45.9 M50.6,45.9
			c0.4,0.2,0.5-0.6,0.2-0.5C50.8,45.6,50.6,45.6,50.6,45.9 M39.6,45.5c-0.3-0.1-0.6,0-0.8,0.2c0,0.4,0.3,0.5,0.5,0.7
			C39.1,45.8,39.7,46,39.6,45.5 M52.8,45.7C53.5,45.8,52.8,45.2,52.8,45.7 M18,46.2C18.5,46.7,18.3,45.6,18,46.2 M12.3,46.2v0.2
			C12.7,46.3,12.6,46.1,12.3,46.2 M44.9,46.3C45.6,46.5,44.9,45.9,44.9,46.3 M36.6,46.8c0-0.3,0.4-0.1,0.3-0.5
			C36.6,46.2,36.2,46.8,36.6,46.8 M26.8,47.3C26.8,46.5,25.9,47.3,26.8,47.3 M47.7,47C48.4,47.2,47.7,46.5,47.7,47 M25.5,47.5
			c0.3,0,0.8,0.2,0.7-0.3C25.8,47.1,25.5,47.2,25.5,47.5 M46.2,47.3c-0.3,0.5,1.1,0.3,1-0.2C46.9,47.1,46.6,47.2,46.2,47.3 M39,47.3
			c-0.1,0.5-0.5,0.7-0.7,1.2c0.6,0.1,1.2-0.3,1.3-0.9c0,0,0,0,0,0C39.5,47.5,39.2,47.5,39,47.3 M17.8,48.3c-0.3,0-0.8-0.2-0.7,0.3
			C17.5,48.7,17.7,48.6,17.8,48.3 M42.9,48.5C42.9,49.4,43.6,48.7,42.9,48.5 M12.2,48.8V49C12.4,49,12.3,48.8,12.2,48.8 M30.5,49.3
			h0.3V49h-0.3V49.3z M36.3,50.3c0.6,0.3,0.7,0,1.5,0.2C37.8,49.5,36.8,49.9,36.3,50.3 M53.8,50.8C54.5,51,53.8,50.3,53.8,50.8
			 M47.7,51.3C48,51.9,48.1,50.7,47.7,51.3 M25.8,51.7c0.3-0.1,0.7-0.1,0.8-0.3C26.3,51.4,25.6,51.1,25.8,51.7 M19.8,52
			C20.5,52.1,19.8,51.5,19.8,52 M19.8,52.5C20.5,52.6,19.8,52,19.8,52.5 M46.4,52.6c0.3,0,0.8,0.2,0.7-0.3
			C46.7,52.3,46.4,52.4,46.4,52.6 M26,53c0.2,0.1,0.3,0.2,0.7,0.2c0-0.4,0-0.6-0.3-0.7C26.4,52.8,26.1,52.8,26,53 M41.2,52.5
			c0,0.5,0.5,0.5,1,0.5C42.2,52.5,41.7,52.5,41.2,52.5 M13.7,53.1c-0.5-0.1-1-0.1-1.5,0v1.2h0.2C12.6,53.7,13.5,53.7,13.7,53.1
			 M30.1,53.3C29.7,53.9,30.7,52.9,30.1,53.3 M52.7,53.5C53.2,54.1,53,52.9,52.7,53.5 M39.7,54c0.4,0,0.8-0.1,1.2-0.3
			C40.6,53.4,39.6,53.4,39.7,54 M51.9,54.3c0.1-0.2,0.1-0.4,0-0.6c-0.1-0.1-0.2-0.1-0.3-0.1C51.5,54,51.6,54.3,51.9,54.3 M24.1,54.8
			c0-0.2,0-0.5,0.2-0.7c-0.5,0.4-0.9-0.1-1,0.7H24.1z M23.6,55.5C24.5,55.7,23.8,55,23.6,55.5 M18.3,56.1c0.6,0.3,1.2,0.5,1.8,0.7
			C20,55.6,18.9,55.2,18.3,56.1 M14.9,57c-0.3,0.4-1.3-0.4-1.2,0.7c0.8,0,0.8,0.2,1.5,0C15.3,57.4,15.2,57.1,14.9,57 M45.9,57.6
			c-0.2-0.2-0.6-0.2-0.7,0.2C45.5,58,45.9,58,45.9,57.6 M25.8,58.3C26.5,58.5,25.8,57.8,25.8,58.3 M46.1,58.3
			C46.8,58.5,46.1,57.8,46.1,58.3 M59.8,58.3c-0.2-0.2-0.5-0.2-0.8-0.2C58.7,58.6,59.9,58.6,59.8,58.3 M56.1,58.8
			c0.4-0.1,1.2,0,1.2-0.5C56.9,58.4,56.1,58.2,56.1,58.8 M12.6,58.5c-0.2,0.7,1,0.7,1,0.2C13.1,58.7,13.1,58.3,12.6,58.5 M36.5,59
			C37.2,59.1,36.5,58.5,36.5,59 M44.9,59.3c0.2,0,0.4-0.1,0.5-0.3C45.1,59,44.8,59,44.9,59.3 M28.2,60.4c0.6-0.1,1.3,0.5,1.5-0.2
			C29,60,29.6,59.2,29,59.1C28.9,59.7,28.2,59.8,28.2,60.4 M36.1,59.4c0.2,0,0.4-0.1,0.5-0.3C36.3,59.1,36,59.1,36.1,59.4
			 M48.8,59.8h0.7C49.6,59.1,48.8,59.2,48.8,59.8 M45.3,60.4c0.3-0.3,0-0.4,0-0.8c-0.3,0-0.5,0.1-0.7,0.3
			C45,59.9,44.7,60.6,45.3,60.4 M34.4,59.8v0.3h0.5C34.9,59.8,34.7,59.7,34.4,59.8 M54.3,60.6h0.3v-0.3h-0.3V60.6z M35.7,3.7
			C35.2,4.2,36.2,3.3,35.7,3.7 M55.8,15C55.3,15.5,56.3,14.5,55.8,15 M55.6,16.2c-0.4-0.3,0-0.5,0.2-0.8c-0.4-0.1-0.8,0.1-1,0.5
			C55.1,15.8,55.6,16.5,55.6,16.2 M16.9,21.3c-0.4,0-0.1-0.7-0.3-0.8c0.3-0.3,1.2-0.1,1.2-0.7c-1.4,0-3.2,1.2-4.2,2.5
			c0.8-0.4,1.6-0.8,2.5-1c0,0.3-0.2,0.4-0.2,0.7C16.2,21.7,16.6,21.7,16.9,21.3 M49.9,22.1c0.2,0.5-0.9,0.5-0.3,0.8
			C49.6,22.6,50.7,22.2,49.9,22.1 M32.3,26c-0.4,0.7,0.3,1.5,0.8,1.2c-1.1-0.3,0.7-0.8-0.2-1c0.6,0.1,1,0.2,1.3,0
			C33.8,25.7,32.8,26.2,32.3,26 M18,31.8c0-0.3,0.5-0.1,0.5-0.3C18.2,31.3,17.6,31.7,18,31.8 M23.2,35c0.1-0.5-0.6-0.2-0.3-0.8
			c-0.5,0.3-0.8-0.3-1,0.3C22.6,34.4,22.8,34.7,23.2,35 M56.3,36.3C54.9,36.1,55.7,37,56.3,36.3 M58,39.4c0.2,0,0.6,0,0.3-0.2
			c-0.3-0.2-0.4,0.2-0.7,0.2c-0.1,0.3,0.2,0.4,0,0.5c-0.2-0.2-1-0.6-1.2,0.2c1,0.1,0.9,0.8,1.8,0.2C58.5,39.8,57.9,39.9,58,39.4
			 M24,43.4C23.6,43.9,24.5,42.9,24,43.4 M57.2,43.4c-0.7,0.1-1.4,0.2-1.5,0.8C56,43.8,56.8,43.8,57.2,43.4 M43.4,46.1
			c-0.3,0.1-0.7,0.1-0.7,0.5C43.1,46.6,43.8,45.7,43.4,46.1 M20.5,47.9v-0.7c-0.3-0.1-0.3,0.2-0.5,0.3c-0.1-0.2-0.8-0.2-0.3,0
			C20,47.6,20,48,20.5,47.9 M30.5,50.7c-0.7,0.3-1.3,0.9-1.7,1.7c0.8-0.2,1.6-0.6,2.3-1c0,0.1,0.1,0.2,0.2,0
			C31,51,30.5,51.6,30.5,50.7 M26.7,55.1c0.4-0.2-0.5-0.6-0.7-0.8c0.5,0.1,0.5-0.4,0.5-0.8c-0.5-0.1-1,0-1.5,0.2v1.2
			C25.9,54.9,26.4,54.7,26.7,55.1 M37.6,56.3c-0.1-0.7,0.7-0.4,0.7-1h-0.3c-0.1,0-0.2,0-0.2,0.2c0.3,0.3-1.3,0.1-1.2,0.8H37.6z"/>
		<path class="st3" d="M64.1-14.9C65-14.7,64.3-15.4,64.1-14.9 M34.5-14.2C35.2-14,34.5-14.7,34.5-14.2 M24.5-12.7
			c-0.7-0.6,0.5-0.9,0.5-1.3c-1,0-0.9,1.1-1.5,1.5C23.6-12.3,24.2-12.5,24.5-12.7 M64.6-13c0.7,0.2,0.7-0.4,1-0.7
			C65.2-13.5,64.6-13.7,64.6-13 M44.4-13.5C44.2-12.5,45.1-13.4,44.4-13.5 M52.3-10.9c0.1-0.2,0.2-0.4,0.3-0.7
			C52-11.8,51.9-10.9,52.3-10.9 M36.8-10.7c0.4,0,0.6,0,0.7-0.3C37.1-11,36.9-11,36.8-10.7 M62.5-10.5c0.4,0,0.7-0.1,1-0.3
			C63-10.9,62.5-11,62.5-10.5 M67.3-10.4C68-10.2,67.3-10.9,67.3-10.4 M64.5-9.4c0.2,0.2,0.8,0.3,0.8-0.2
			C65.1-9.8,64.5-9.8,64.5-9.4 M58.9-9.2C59.6-9.1,58.9-9.7,58.9-9.2 M63.1-8.7C63.8-8.6,63.1-9.2,63.1-8.7 M29.1-8.4
			c-0.2,0-0.2-0.1-0.3-0.2c0,0.2-0.1,0.2-0.2,0.3c0.2,0,0.2,0.1,0.3,0.2C29-8.2,29.1-8.3,29.1-8.4 M27.8-7.7
			C28.5-7.6,27.8-8.2,27.8-7.7 M29.3-7.9c-0.3,0-0.6,0.1-0.7,0.3C29-7.6,29.3-7.6,29.3-7.9 M33-7.6C33.9-7.4,33.2-8.1,33-7.6
			 M49.4-7.6h-0.3v0.3h0.3L49.4-7.6z M53.3-6.9c0.7,0.1,1.1,0.6,1.3-0.3C54.1-7.2,53.3-7.4,53.3-6.9 M46.6-5.7
			c0.2,0.2,0.6,0.2,0.8,0c0.1-0.1,0.2-0.2,0.2-0.3C47.1-6.1,46.6-6.2,46.6-5.7 M27-5.2C27.7-5.1,27-5.7,27-5.2 M21.3-4.2v0.2
			C21.7-4.1,21.6-4.3,21.3-4.2 M49.9-1.8h-0.3v0.3h0.3V-1.8z M57.8-1.1h0.3v-0.3h-0.3V-1.1z M60.1-1.1C60.8-0.9,60.1-1.6,60.1-1.1
			 M52.3-0.4c-0.3,0.1-1.1-0.2-1.2,0.2C51.4-0.4,52.2-0.1,52.3-0.4 M45.5,0.9c0.6,0,1.2,0,1-0.7c-0.3-0.1-0.7,0-1,0.2V0.9z
			 M28.8,0.7c-0.9-0.4-0.9,0.3-1.8,0C27.4,2.1,28.3,1,28.8,0.7 M40,1.9c0.7,0.1,1.2-0.1,1.3-0.7c-0.2,0-0.4,0-0.5-0.2
			C41.1,1.9,39.9,1.2,40,1.9 M37.4,1.9c-0.2-0.3-0.9,0.3-0.5-0.3c-0.2,0-0.5,0-0.5,0.2c0.2,0,0.1,0.2,0,0.3
			C36.7,2,37.3,2.3,37.4,1.9 M53.3,1.9v0.3h0.5C53.8,1.9,53.6,1.8,53.3,1.9 M53.9,2.4C54.6,2.5,53.9,1.9,53.9,2.4 M66.4,3.4
			c0.5-0.1,1-0.2,1.5-0.5c-0.3-0.1-0.6-0.3-0.8-0.5C66.9,2.8,66.5,3,66.4,3.4 M25.5,3.9c0-0.3,0.5-0.1,0.5-0.3
			C25.8,3.1,25,3.7,25.5,3.9 M33.4,4.5C33.8,5.2,33.6,4,33.4,4.5 M65,4.5C65.7,4.7,65,4,65,4.5 M64.8,5h-0.5v0.5
			C64.7,5.5,64.9,5.4,64.8,5 M40.1,5.9c0.4,1,1.1,1,1.8,0.3C41.6,5.4,40.9,5.6,40.1,5.9 M28.2,6C28.9,6.2,28.2,5.5,28.2,6 M24.3,6.4
			c0-0.4-1.1-0.5-1.3-0.2C23.3,6.3,24.2,6.7,24.3,6.4 M67.9,6.7C69.4,7.4,68.2,5.4,67.9,6.7 M22,6.7c0.4,0.1,0.9,0.4,1-0.3
			c-0.9,0.2-0.9-0.1-1.7,0.3v0.8C21.9,8,21.6,6.9,22,6.7 M24.7,6.7C25.3,6.9,24.7,6.2,24.7,6.7 M27.2,7.7c0.1-0.5-0.5-0.3-0.3-0.8
			C26.4,7,26,7.1,26,7.5C26.3,7.9,26.8,7.9,27.2,7.7 M39.9,7v0.3h0.5C40.4,7.1,40.2,7,39.9,7 M58.1,7.7c-0.2-0.2-0.6-0.2-0.8-0.2
			C57,8,58.2,8,58.1,7.7 M39.2,8.7h0.3V8h-0.3V8.7z M60,8.2C59.6,8.7,60.5,7.8,60,8.2 M35.9,8.4v0.3h0.5C36.4,8.4,36.2,8.3,35.9,8.4
			 M34.2,10c0.1-0.6-0.3-0.5-0.5-0.8C33.5,9.4,33.5,10.2,34.2,10 M23,10.5C23.7,10.7,23,10,23,10.5 M47.6,10.3h-0.3v0.3h0.3V10.3z
			 M66,10.5C66.7,10.7,66,10,66,10.5 M62,11.3h0.8c0.1-0.3,0.3-0.6,0-0.8c-0.1,0.6-0.6,0-0.8,0.3V11.3z M41.2,10.8
			C41.9,11,41.2,10.3,41.2,10.8 M52.9,10.8C53.2,11.4,53.4,10.2,52.9,10.8 M24.8,11.2h0.3v-0.3h-0.3V11.2z M40.9,11.2
			C40.3,10.7,40.4,11.8,40.9,11.2 M53.3,11.2C54,11.3,53.3,10.7,53.3,11.2 M58.5,12c0.2,0.2,0.6,0.2,0.7-0.2
			C58.9,11.8,58.5,11.8,58.5,12 M24.3,12c0,0.2,0.1,0.4,0.3,0.5C24.7,12.2,24.7,11.9,24.3,12 M28.7,12.2c0.1,0.4-0.3,0.4-0.2,0.8
			c0.9,0.1,1.3-0.2,1.5-0.7C29.7,12.2,29.3,12.3,28.7,12.2 M65,13.3C65.7,13.5,65,12.8,65,13.3 M47.6,13.7
			C46.6,13.5,47.3,14.2,47.6,13.7 M28,14.2c0,0.2-0.1,0.2-0.2,0.3c0.2,0,0.2,0.1,0.3,0.2c0-0.2,0.1-0.2,0.2-0.3
			C28.2,14.3,28.2,14.2,28,14.2 M49,14.8C49.4,15.5,49.2,14.3,49,14.8 M52.3,15C53,15.1,52.3,14.5,52.3,15 M41.3,15.5
			c0.3-0.1,0.7-0.1,0.8-0.3C41.8,14.8,41.4,15.2,41.3,15.5 M25.5,16.3c0.3-0.2,0.5-0.6,0-0.7C25.5,15.8,25.1,16.3,25.5,16.3
			 M64,15.8v0.8C64.6,16.9,64.6,15.6,64,15.8 M27.4,16.5C28.3,16.7,27.6,16,27.4,16.5 M63.5,16.3c-0.4,0-0.6,0-0.7,0.3
			C63.3,16.7,63.5,16.7,63.5,16.3 M33.6,17.7c0.6,0.1,0.7-0.4,0.8-0.8C34,16.8,33.6,17.2,33.6,17.7 M68.2,17.7h0.5
			C68.9,16.8,68.2,17.3,68.2,17.7 M41.6,18v-0.5C40.8,17.3,40.7,18.2,41.6,18 M55.9,17.5c0,0.2,0,0.5,0.2,0.5
			C56.1,17.8,56.4,17.4,55.9,17.5 M57.9,18C58.1,18.5,58.3,17.3,57.9,18 M29.2,18c0.1,0.3,0.1,0.7,0.3,0.8c0-0.2,0.7-0.4,0.7-0.2
			c-0.1,0.3-0.5,0.3-0.2,0.7h0.5C30.8,18.2,30.3,17.8,29.2,18 M42.6,18.3c0.3,0.3,1.6,0.3,1.5-0.3C43.7,18.1,42.6,17.6,42.6,18.3
			 M64.5,19.8c0.3,0,0.8,0.2,0.7-0.3C64.9,19.4,64.6,19.6,64.5,19.8 M55.9,20.1c0.5,0.1,0.5-0.3,0.7-0.5h-0.7V20.1z M27.3,20.8
			c0.3,0.1,0.7,0,1-0.2c0.1-0.3-0.2-0.4,0-0.5c0.2-0.1,0.3,0,0.3-0.2C27.9,20,27.4,20.2,27.3,20.8 M67.1,20.1
			C67.8,20.3,67.1,19.6,67.1,20.1 M38.2,21.8c0.1-0.4,0.5-0.5,0.5-1C38,20.5,37.8,21.5,38.2,21.8 M46.9,23.8c0.2-0.5,0.2-1.3,1-1.3
			c0-0.5-0.3-1.4-0.7-1c0.1,0.4-0.8,1.2-1,1.8C46.3,23.5,46.4,23.8,46.9,23.8 M42.8,21.8c0.3,0,0.6,0,0.5-0.3
			C43.1,21.4,42.9,21.5,42.8,21.8 M44,21.6c0.3,0.1,0.4,0.4,0.9,0.3C45.1,21.4,44.2,21.2,44,21.6 M48,21.4
			C47.5,22,48.7,21.9,48,21.4 M61.8,21.8C62.5,21.9,61.8,21.3,61.8,21.8 M54.9,22.6c0-0.4-0.3-0.5-0.5-0.7c0,0.3-0.2,0.4-0.2,0.7
			H54.9z M68,22.7c0.4-0.1,0.4,0.3,0.8,0.2C69,22.3,68,22.3,68,22.7 M48.4,24.2c0.1-0.5,0.2-0.9,0.3-1.3
			C48.1,22.9,47.4,24.2,48.4,24.2 M34.8,23.9v-0.3C34.5,23,34,24.1,34.8,23.9 M68.8,23.4c-0.3,0-0.6,0-0.5,0.3
			C68.5,23.8,68.7,23.6,68.8,23.4 M45.7,23.9H46v-0.3h-0.3V23.9z M37.5,24.1H38c0-0.3-0.2-0.4-0.5-0.3V24.1z M42,24.4
			C42.7,24.6,42,23.9,42,24.4 M49,24.4C48.6,25,49.6,24,49,24.4 M61.8,24.7c0.2,0,0.4-0.1,0.5-0.3C62,24.4,61.7,24.4,61.8,24.7
			 M34.5,25.4c0.4,0.1,1,0.3,1-0.3C35,25.1,34.6,25.1,34.5,25.4 M59.9,25.9h0.3v-0.3h-0.3V25.9z M46.5,26.4c0.2,0,0.2,0.1,0.3,0.2
			c0-0.2,0.1-0.2,0.2-0.3c-0.2,0-0.2-0.1-0.3-0.2C46.7,26.2,46.6,26.3,46.5,26.4 M64.8,26.2c0.1,0.5-0.2,0.4-0.2,0.8
			c0.2,0.2,0.7,0.2,1.2,0.2c-0.1-0.5-0.1-0.3,0.2-0.7C65.6,26.4,65.4,26.1,64.8,26.2 M24.4,27.4c-0.5,0.2-0.9-0.1-1,0.7
			C24.1,28.1,24.4,27.9,24.4,27.4 M36,27.9C35.5,28.4,36.5,27.5,36,27.9 M36.5,27.9c0.2,0.1,0.3,0.2,0.7,0.2
			C37.4,27.6,36.4,27.6,36.5,27.9 M30.8,28.6v-0.5C30,27.9,29.9,28.8,30.8,28.6 M46.8,28.2C46.4,28.8,47.4,27.8,46.8,28.2
			 M56.9,28.4c0,0.2-0.2,0.2-0.2,0.5C57.1,29.1,57.2,28.3,56.9,28.4 M44.8,29.7c0.4,0.5,1,0.2,1.7,0.2c-0.1-0.4-0.8-0.2-1-0.8
			c0.1,0,0.3,0,0.3-0.2C45.1,28.8,45.2,29.4,44.8,29.7 M28.1,29.6h0.3v-0.3h-0.3V29.6z M56.6,29.3c-0.3,0-0.6,0-0.5,0.3
			C56.3,29.6,56.5,29.5,56.6,29.3 M59.6,29.6C60.5,29.8,59.8,29.1,59.6,29.6 M32.6,29.8C33.3,29.9,32.6,29.3,32.6,29.8 M59.8,29.9
			C60.9,30.3,60.5,29.4,59.8,29.9 M29.5,30.7C29.1,31.3,30,30.3,29.5,30.7 M57.3,31.1c0.4,0,0.9,0,0.8-0.5
			C57.6,30.6,57.2,30.6,57.3,31.1 M54.9,31.4c-0.1,0.6,0.7,0.3,0.8,0.7c-0.2,0-0.4,0.1-0.5,0.3h0.8c-0.3-0.8,0.3-0.9,0-1.3
			C55.9,31.4,55.4,31.4,54.9,31.4 M52.6,31.4c-0.1,0.9-1.4,1-2.2,1.7C51.5,33.7,53.3,32.1,52.6,31.4 M67,32.4c0.2,0,0.4-0.1,0.5-0.3
			C67.2,32.1,66.9,32.1,67,32.4 M23.1,32.6c0.2,0,0.4-0.1,0.5-0.3C23.3,32.2,23,32.2,23.1,32.6 M29.5,33.2c-0.1-0.5,0.8-0.1,0.7-0.7
			C29.6,32.3,29,32.9,29.5,33.2 M22.1,33.1C22.8,33.2,22.1,32.6,22.1,33.1 M37.2,33.6H38v-0.7C37.4,32.8,37.3,33.3,37.2,33.6
			 M44.2,33.4c0.1-0.4-0.3-0.4-0.7-0.5C43.4,33.4,44.1,33.1,44.2,33.4 M39.7,33.6c-0.7-1-1.7,0-2,0.8C38.7,34.4,38.9,33.7,39.7,33.6
			 M23.4,33.6c-0.3,0.1-0.6,0-0.8-0.2C22.5,33.9,23.4,34.1,23.4,33.6 M28.6,33.4c0.1,0.6-0.4,0.9,0,1.3c0.6-0.1,0.7-0.7,1.2-1
			C29.4,33.6,29.2,33.3,28.6,33.4 M49.7,34.4c0.7,0.2,1.2-0.7,0.5-0.8C50.2,34,49.6,33.9,49.7,34.4 M21.3,33.9v0.2
			C21.4,34.1,21.3,33.9,21.3,33.9 M66.6,34.7c0.2-0.1,0.9,0.2,0.8-0.2C67.2,34.3,66.6,34.3,66.6,34.7 M36,36.4c1,0.5,1.1,0,2-0.3
			c-0.3-0.1-0.9-1.2,0-1c-0.6-1.2-0.6,0.3-1.3,0c0.2,0.6,0.3,0.3,0.3,1.2C36.7,36.3,36,36,36,36.4 M43.9,34.7
			c0.4-0.1,0.2,0.5,0.5,0.5C44.8,35,44,34.3,43.9,34.7 M54.1,36.9c-0.2-0.8,0.7-0.6,0.7-1.2c-0.5-0.1-0.4,0.2-0.8,0.2
			C54,36.2,53.7,36.9,54.1,36.9 M45.5,36.7c0.5,0,0.9-0.6,0.3-0.7C46.1,36.6,45.3,36.2,45.5,36.7 M49.1,36.5h0.8
			C50,35.8,49.1,36.1,49.1,36.5 M34,36.5c0.2,0.4,0.8-0.2,0.3-0.3C34.3,36.4,34.1,36.4,34,36.5 M68.8,36.7c-0.2-0.3-0.9-0.2-0.8,0.3
			C68.4,37,68.8,37,68.8,36.7 M63.8,37C63.2,36.5,63.3,37.7,63.8,37 M53.9,37c0,0,0,0.1,0,0.2C53.6,38.2,54.8,36.2,53.9,37
			 M55.3,38.4c0.9-0.1,0.7-0.2,0.8-1C55.6,37.5,55.1,37.6,55.3,38.4 M67.7,38C68.1,38.7,67.9,37.5,67.7,38 M32.4,38.7
			c0.5,0.1,0.5-0.3,1-0.2C33.1,37.8,32.7,38.2,32.4,38.7 M57.5,38c-0.3-0.1-0.6,0.1-0.8,0.3C57,38.5,57.5,38.7,57.5,38 M61.5,38.2
			C61.9,38.9,61.7,37.7,61.5,38.2 M21.5,38.7C22.2,38.9,21.5,38.2,21.5,38.7 M29,39.2c0.1,0,0.2,0,0.2,0.2h0.3
			C29.8,39,28.9,38.9,29,39.2 M51.3,39.7C52.2,39.9,51.5,39.2,51.3,39.7 M65.3,40.5h0.5V40C65.5,40,65.3,40.2,65.3,40.5 M46.1,41.2
			c0.3,0,0.8,0.2,0.7-0.3h-0.7V41.2z M68.7,40.9c-0.3,0.1-1-0.2-0.9,0.3C68.1,41.3,68.5,41.1,68.7,40.9 M55,41.2
			C55.7,41.4,55,40.7,55,41.2 M55,41.4h-0.3v0.3H55V41.4z M44.6,41.8C45.5,42,44.8,41.4,44.6,41.8 M24.2,42.2c-0.4,0-0.6,0-0.7,0.3
			C23.8,42.5,24.4,42.7,24.2,42.2 M29.2,42.2v0.3h0.5C29.7,42.2,29.5,42.1,29.2,42.2 M54.8,43c-0.2-0.2-0.7-0.6-0.8,0
			C54.4,42.8,54.7,43.5,54.8,43 M63.5,42.8c0.2,0.2,0.6,0.2,0.8,0.2C64.6,42.5,63.5,42.6,63.5,42.8 M52.3,43.8
			c-0.6,0.1-1.3,0-1.7,0.7C51,44.7,52.8,44.4,52.3,43.8 M54.3,43.8c-0.5,0.1-1,0.3-1.3,0.7C53.6,44.5,54.5,44.7,54.3,43.8
			 M30.7,44.5h0.5C31.4,43.7,30.7,44.1,30.7,44.5 M59.7,44.5c0.4,0.3,0.5-0.6,0.2-0.5C59.9,44.2,59.6,44.2,59.7,44.5 M48.6,44.2
			c-0.3-0.1-0.6,0-0.8,0.2c0,0.4,0.3,0.5,0.5,0.7C48.2,44.5,48.8,44.7,48.6,44.2 M61.9,44.3C62.6,44.5,61.9,43.8,61.9,44.3 M27,44.8
			C27.6,45.4,27.3,44.2,27,44.8 M21.3,44.8V45C21.8,45,21.6,44.8,21.3,44.8 M54,45C54.7,45.2,54,44.5,54,45 M45.6,45.5
			c0-0.3,0.4-0.1,0.3-0.5C45.6,44.8,45.2,45.4,45.6,45.5 M35.9,46C35.9,45.1,35,45.9,35.9,46 M56.8,45.7
			C57.5,45.8,56.8,45.2,56.8,45.7 M34.5,46.2c0.3,0,0.8,0.2,0.7-0.3C34.8,45.8,34.6,45.8,34.5,46.2 M55.3,46c-0.3,0.5,1.1,0.3,1-0.2
			C56,45.8,55.6,45.8,55.3,46 M48.1,46c-0.1,0.5-0.5,0.7-0.7,1.2c0.6,0.1,1.2-0.3,1.3-0.9c0,0,0,0,0-0.1
			C48.5,46.2,48.3,46.1,48.1,46 M26.8,47c-0.3,0-0.8-0.2-0.7,0.3C26.5,47.4,26.8,47.3,26.8,47 M51.9,47.2
			C51.9,48,52.6,47.3,51.9,47.2 M21.3,47.5v0.2C21.5,47.7,21.4,47.5,21.3,47.5 M39.5,48h0.3v-0.3h-0.3V48z M45.4,49
			c0.6,0.3,0.7,0,1.5,0.2C46.9,48.1,45.8,48.6,45.4,49 M62.8,49.5C63.5,49.6,62.8,49,62.8,49.5 M56.8,50C57,50.5,57.2,49.3,56.8,50
			 M34.9,50.3c0.3-0.1,0.7-0.1,0.8-0.3C35.4,50,34.7,49.7,34.9,50.3 M28.8,50.6C29.5,50.8,28.8,50.1,28.8,50.6 M28.8,51.1
			C29.5,51.3,28.8,50.6,28.8,51.1 M55.4,51.3c0.3,0,0.8,0.2,0.7-0.3C55.7,51,55.5,51,55.4,51.3 M35,51.6c0.2,0.1,0.3,0.2,0.7,0.2
			c0.1-0.4,0-0.6-0.3-0.7C35.4,51.5,35.1,51.5,35,51.6 M50.3,51.1c0,0.5,0.5,0.5,1,0.5C51.3,51.1,50.8,51.1,50.3,51.1 M22.8,51.8
			c-0.5-0.2-1-0.2-1.5,0V53h0.2C21.7,52.4,22.5,52.3,22.8,51.8 M39.2,52C38.8,52.5,39.8,51.6,39.2,52 M61.8,52.1
			C62.2,52.8,62,51.6,61.8,52.1 M48.7,52.6c0.4,0,0.8-0.1,1.2-0.3C49.6,52,48.7,52,48.7,52.6 M61,53c0.2-0.2,0.2-0.4,0-0.6
			c-0.1-0.1-0.2-0.1-0.3-0.1C60.6,52.7,60.6,52.9,61,53 M33.2,53.5c0-0.2,0-0.5,0.2-0.7c-0.5,0.4-0.9-0.1-1,0.7H33.2z M32.7,54.1
			C33.5,54.3,32.9,53.6,32.7,54.1 M27.3,54.8c0.6,0.3,1.2,0.5,1.8,0.7C29.1,54.2,27.9,53.9,27.3,54.8 M24,55.6
			c-0.3,0.4-1.3-0.4-1.2,0.7c0.8,0,0.8,0.2,1.5,0C24.3,56,24.2,55.8,24,55.6 M55,56.3c-0.2-0.2-0.6-0.2-0.7,0.2
			C54.5,56.7,54.9,56.7,55,56.3 M34.9,56.9C35.6,57.1,34.9,56.4,34.9,56.9 M55.1,56.9C55.8,57.1,55.1,56.4,55.1,56.9 M68.9,56.9
			c-0.2-0.2-0.6-0.2-0.8-0.2C67.8,57.3,68.9,57.2,68.9,56.9 M65.2,57.4c0.4-0.1,1.2,0,1.2-0.5C65.9,57.1,65.2,56.9,65.2,57.4
			 M21.6,57.1c-0.2,0.6,1,0.7,1,0.2C22.1,57.4,22.2,57,21.6,57.1 M45.6,57.6C46.3,57.8,45.6,57.1,45.6,57.6 M54,57.9
			c0.2,0,0.4-0.1,0.5-0.3C54.2,57.6,53.9,57.6,54,57.9 M37.2,59.1c0.6-0.1,1.3,0.5,1.5-0.2c-0.7-0.2-0.1-1.1-0.7-1.2
			C37.9,58.4,37.3,58.4,37.2,59.1 M45.1,58.1c0.2,0,0.4-0.1,0.5-0.3C45.3,57.8,45,57.8,45.1,58.1 M57.8,58.4h0.7
			C58.6,57.8,57.8,57.9,57.8,58.4 M54.3,59.1c0.3-0.3,0-0.4,0-0.8c-0.3,0-0.6,0.1-0.7,0.3C54,58.6,53.7,59.2,54.3,59.1 M43.4,58.4
			v0.3h0.5C43.9,58.5,43.7,58.4,43.4,58.4 M63.3,59.3h0.3v-0.3h-0.3V59.3z M44.7,2.4C44.2,2.9,45.2,1.9,44.7,2.4 M64.8,13.6
			C64.3,14.2,65.3,13.2,64.8,13.6 M64.6,14.8c-0.4-0.3,0-0.5,0.2-0.8c-0.5,0-0.9,0.1-1,0.5C64.1,14.4,64.6,15.1,64.6,14.8 M25.9,20
			c-0.3,0,0-0.7-0.3-0.8c0.3-0.3,1.2-0.1,1.2-0.7c-1.4,0-3.2,1.2-4.2,2.5c0.8-0.4,1.6-0.8,2.5-1c0,0.3-0.2,0.4-0.2,0.7
			C25.2,20.4,25.5,20.4,25.9,20 M58.9,20.8c0.2,0.5-0.9,0.5-0.3,0.8C58.6,21.3,59.7,20.8,58.9,20.8 M41.3,24.6
			c-0.4,0.7,0.3,1.5,0.8,1.2c-1.1-0.3,0.7-0.8-0.2-1c0.6,0.1,1,0.2,1.3,0C42.7,24.3,41.7,24.9,41.3,24.6 M26.9,30.4
			c0-0.3,0.5-0.1,0.5-0.3C27.1,29.9,26.6,30.3,26.9,30.4 M32.1,33.5c0.1-0.5-0.6-0.2-0.3-0.8c-0.5,0.3-0.8-0.3-1,0.3
			C31.5,32.9,31.7,33.3,32.1,33.5 M65.4,34.9C64,34.7,64.7,35.6,65.4,34.9 M67,38c0.2,0,0.6,0,0.3-0.2C67,37.7,67,38.1,66.7,38
			c-0.1,0.3,0.2,0.4,0,0.5c-0.2-0.2-1-0.6-1.2,0.2c1,0.1,0.9,0.8,1.8,0.2C67.5,38.4,66.9,38.6,67,38 M33,42
			C32.6,42.5,33.5,41.6,33,42 M66.2,42c-0.7,0.1-1.4,0.2-1.5,0.8C65.1,42.5,65.9,42.5,66.2,42 M52.5,44.7c-0.3,0.1-0.7,0.1-0.7,0.5
			C52.2,45.2,52.8,44.3,52.5,44.7 M29.5,46.5v-0.7c-0.3,0-0.3,0.2-0.5,0.3c-0.1-0.2-0.8-0.2-0.3,0C29,46.2,29,46.6,29.5,46.5
			 M39.6,49.3c-0.7,0.3-1.3,0.9-1.7,1.7c0.8-0.2,1.6-0.6,2.3-1c0,0.1,0.1,0.2,0.2,0C40,49.6,39.5,50.3,39.6,49.3 M35.7,53.8
			c0.4-0.2-0.5-0.6-0.7-0.8c0.5,0.1,0.5-0.4,0.5-0.8c-0.5-0.1-1,0-1.5,0.2v1.2C34.9,53.6,35.4,53.4,35.7,53.8 M46.6,55
			c-0.1-0.7,0.7-0.4,0.7-1h-0.3c-0.1,0-0.2,0-0.2,0.2c0.3,0.3-1.3,0.1-1.2,0.8H46.6z"/>
	</g>
</g>
</svg>
